<?xml version="1.0" encoding="UTF-8" standalone="no"?>
<!DOCTYPE svg PUBLIC "-//W3C//DTD SVG 1.1//EN"
 "http://www.w3.org/Graphics/SVG/1.1/DTD/svg11.dtd">
<!-- Generated by graphviz version 2.38.0 (20140413.2041)
 -->
<!-- Title: G Pages: 1 -->
<svg width="767pt" height="429pt"
 viewBox="0.00 0.00 766.61 429.00" xmlns="http://www.w3.org/2000/svg" xmlns:xlink="http://www.w3.org/1999/xlink">
<g id="graph0" class="graph" transform="scale(1 1) rotate(0) translate(388.188 232.083)">
<title>G</title>
<polygon fill="white" stroke="none" points="-388.188,196.919 -388.188,-232.083 378.417,-232.083 378.417,196.919 -388.188,196.919"/>
<!-- HTTPServer -->
<g id="node1" class="node"><title>HTTPServer</title>
<polygon fill="none" stroke="#97007c" stroke-width="2" points="-284.431,-25.1512 -284.431,-61.1512 -217.431,-61.1512 -217.431,-25.1512 -284.431,-25.1512"/>
<text text-anchor="middle" x="-250.931" y="-41.2512" font-family="Bitstream Vera Sans" font-size="8.00">HTTPServer</text>
</g>
<!-- HTTPHandler -->
<g id="node4" class="node"><title>HTTPHandler</title>
<polygon fill="none" stroke="black" points="-188.828,15.4069 -188.828,-20.5931 -117.828,-20.5931 -117.828,15.4069 -188.828,15.4069"/>
<text text-anchor="middle" x="-153.328" y="-0.693076" font-family="Bitstream Vera Sans" font-size="8.00">HTTPHandler</text>
</g>
<!-- HTTPServer&#45;&gt;HTTPHandler -->
<g id="edge8" class="edge"><title>HTTPServer&#45;&gt;HTTPHandler</title>
<path fill="none" stroke="black" d="M-217.341,-29.1934C-211.191,-26.6378 -204.683,-23.9333 -198.264,-21.2661"/>
<polygon fill="black" stroke="black" points="-196.868,-24.4762 -188.977,-17.4068 -199.554,-18.0121 -196.868,-24.4762"/>
<text text-anchor="middle" x="-167.803" y="-27.8298" font-family="Bitstream Vera Sans" font-size="8.00">tworzy nowy wątek</text>
</g>
<!-- HTTPHandler2 -->
<g id="node6" class="node"><title>HTTPHandler2</title>
<polygon fill="none" stroke="black" stroke-dasharray="1,5" points="-146.347,-133.703 -146.347,-169.703 -69.347,-169.703 -69.347,-133.703 -146.347,-133.703"/>
<text text-anchor="middle" x="-107.847" y="-149.803" font-family="Bitstream Vera Sans" font-size="8.00">HTTPHandler2</text>
</g>
<!-- HTTPServer&#45;&gt;HTTPHandler2 -->
<g id="edge5" class="edge"><title>HTTPServer&#45;&gt;HTTPHandler2</title>
<path fill="none" stroke="black" d="M-226.982,-61.3204C-203.149,-79.4016 -166.419,-107.267 -140.044,-127.277"/>
<polygon fill="black" stroke="black" points="-141.956,-130.219 -131.874,-133.475 -137.725,-124.642 -141.956,-130.219"/>
<text text-anchor="middle" x="-223.513" y="-96.8985" font-family="Bitstream Vera Sans" font-size="8.00">tworzy nowy wątek</text>
</g>
<!-- HTTPHandler3 -->
<g id="node8" class="node"><title>HTTPHandler3</title>
<polygon fill="none" stroke="black" stroke-dasharray="1,5" points="-172.036,129.638 -172.036,93.638 -95.0365,93.638 -95.0365,129.638 -172.036,129.638"/>
<text text-anchor="middle" x="-133.536" y="113.538" font-family="Bitstream Vera Sans" font-size="8.00">HTTPHandler3</text>
</g>
<!-- HTTPServer&#45;&gt;HTTPHandler3 -->
<g id="edge9" class="edge"><title>HTTPServer&#45;&gt;HTTPHandler3</title>
<path fill="none" stroke="black" d="M-237.234,-25.092C-216.668,2.02529 -177.682,53.4303 -153.813,84.9025"/>
<polygon fill="black" stroke="black" points="-150.764,83.1312 -147.509,93.214 -156.341,87.3612 -150.764,83.1312"/>
<text text-anchor="middle" x="-235.524" y="27.3053" font-family="Bitstream Vera Sans" font-size="8.00">tworzy nowy wątek</text>
</g>
<!-- Database -->
<g id="node2" class="node"><title>Database</title>
<polygon fill="none" stroke="black" points="-30.9457,10.4583 -30.9457,-25.5417 26.0543,-25.5417 26.0543,10.4583 -30.9457,10.4583"/>
<text text-anchor="middle" x="-2.44575" y="-5.64175" font-family="Bitstream Vera Sans" font-size="8.00">Database</text>
</g>
<!-- Database&#45;&gt;HTTPHandler -->
<g id="edge10" class="edge"><title>Database&#45;&gt;HTTPHandler</title>
<path fill="none" stroke="red" d="M-31.1806,-6.59929C-52.7271,-5.8926 -82.6537,-4.91106 -107.492,-4.09642"/>
<polygon fill="red" stroke="red" points="-107.676,-0.588574 -117.786,-3.75879 -107.906,-7.58481 -107.676,-0.588574"/>
<text text-anchor="middle" x="-69.3361" y="1.05215" font-family="Bitstream Vera Sans" font-size="8.00">odczytuje z bazy danych</text>
</g>
<!-- Database&#45;&gt;HTTPHandler2 -->
<g id="edge11" class="edge"><title>Database&#45;&gt;HTTPHandler2</title>
<path fill="none" stroke="red" d="M-15.7949,-25.7999C-34.1686,-50.9303 -67.3687,-96.3395 -88.4743,-125.206"/>
<polygon fill="red" stroke="red" points="-91.5295,-123.455 -94.6062,-133.593 -85.8787,-127.586 -91.5295,-123.455"/>
<text text-anchor="middle" x="-102.635" y="-78.1032" font-family="Bitstream Vera Sans" font-size="8.00">odczytuje z bazy danych</text>
</g>
<!-- Database&#45;&gt;HTTPHandler3 -->
<g id="edge12" class="edge"><title>Database&#45;&gt;HTTPHandler3</title>
<path fill="none" stroke="red" d="M-22.3556,10.5591C-44.5886,30.772 -80.7285,63.6282 -105.741,86.368"/>
<polygon fill="red" stroke="red" points="-103.686,89.2296 -113.439,93.3668 -108.394,84.0501 -103.686,89.2296"/>
<text text-anchor="middle" x="-114.548" y="45.8636" font-family="Bitstream Vera Sans" font-size="8.00">odczytuje z bazy danych</text>
</g>
<!-- Client -->
<g id="node3" class="node"><title>Client</title>
<polygon fill="none" stroke="black" points="-384.188,6.23697 -384.188,-29.763 -330.188,-29.763 -330.188,6.23697 -384.188,6.23697"/>
<text text-anchor="middle" x="-357.188" y="-9.86303" font-family="Bitstream Vera Sans" font-size="8.00">Client</text>
</g>
<!-- Client&#45;&gt;HTTPServer -->
<g id="edge6" class="edge"><title>Client&#45;&gt;HTTPServer</title>
<path fill="none" stroke="blue" stroke-dasharray="1,5" d="M-330.1,-19.7648C-319.244,-22.9717 -306.46,-26.748 -294.369,-30.3195"/>
<polygon fill="blue" stroke="blue" points="-295.016,-33.7781 -284.434,-33.2545 -293.033,-27.0648 -295.016,-33.7781"/>
<text text-anchor="middle" x="-300.735" y="-18.6422" font-family="Bitstream Vera Sans" font-size="8.00">Łączy się z</text>
</g>
<!-- HTTPHandler&#45;&gt;Client -->
<g id="edge7" class="edge"><title>HTTPHandler&#45;&gt;Client</title>
<path fill="none" stroke="blue" stroke-dasharray="1,5" d="M-188.837,-4.19036C-225.385,-5.83432 -282.111,-8.38593 -319.453,-10.0656"/>
<polygon fill="blue" stroke="blue" points="-320.074,-6.58993 -329.906,-10.5358 -319.759,-13.5829 -320.074,-6.58993"/>
<text text-anchor="middle" x="-254.145" y="-0.727991" font-family="Bitstream Vera Sans" font-size="8.00">odpowiada na rządanie klienta</text>
</g>
<!-- Client2 -->
<g id="node5" class="node"><title>Client2</title>
<polygon fill="none" stroke="black" stroke-dasharray="1,5" points="-276.769,-191.583 -276.769,-227.583 -222.769,-227.583 -222.769,-191.583 -276.769,-191.583"/>
<text text-anchor="middle" x="-249.769" y="-207.683" font-family="Bitstream Vera Sans" font-size="8.00">Client2</text>
</g>
<!-- Client2&#45;&gt;HTTPServer -->
<g id="edge1" class="edge"><title>Client2&#45;&gt;HTTPServer</title>
<path fill="none" stroke="blue" stroke-dasharray="1,5" d="M-249.895,-191.455C-250.097,-162.567 -250.493,-105.856 -250.732,-71.5459"/>
<polygon fill="blue" stroke="blue" points="-247.234,-71.2321 -250.804,-61.2568 -254.234,-71.2811 -247.234,-71.2321"/>
<text text-anchor="middle" x="-273.314" y="-134.101" font-family="Bitstream Vera Sans" font-size="8.00">Łączy się z</text>
</g>
<!-- HTTPHandler2&#45;&gt;Client2 -->
<g id="edge3" class="edge"><title>HTTPHandler2&#45;&gt;Client2</title>
<path fill="none" stroke="blue" stroke-dasharray="1,5" d="M-146.628,-167.519C-167.458,-176.014 -192.981,-186.424 -213.427,-194.762"/>
<polygon fill="blue" stroke="blue" points="-214.782,-191.534 -222.719,-198.552 -212.138,-198.016 -214.782,-191.534"/>
<text text-anchor="middle" x="-245.027" y="-183.74" font-family="Bitstream Vera Sans" font-size="8.00">odpowiada na rządanie klienta</text>
</g>
<!-- Client3 -->
<g id="node7" class="node"><title>Client3</title>
<polygon fill="none" stroke="black" stroke-dasharray="1,5" points="-309.858,157.679 -309.858,121.679 -255.858,121.679 -255.858,157.679 -309.858,157.679"/>
<text text-anchor="middle" x="-282.858" y="141.579" font-family="Bitstream Vera Sans" font-size="8.00">Client3</text>
</g>
<!-- Client3&#45;&gt;HTTPServer -->
<g id="edge2" class="edge"><title>Client3&#45;&gt;HTTPServer</title>
<path fill="none" stroke="blue" stroke-dasharray="1,5" d="M-279.68,121.48C-274.086,89.4471 -262.448,22.799 -255.822,-15.1393"/>
<polygon fill="blue" stroke="blue" points="-259.264,-15.7771 -254.096,-25.0259 -252.368,-14.5729 -259.264,-15.7771"/>
<text text-anchor="middle" x="-290.751" y="50.5705" font-family="Bitstream Vera Sans" font-size="8.00">Łączy się z</text>
</g>
<!-- HTTPHandler3&#45;&gt;Client3 -->
<g id="edge4" class="edge"><title>HTTPHandler3&#45;&gt;Client3</title>
<path fill="none" stroke="blue" stroke-dasharray="1,5" d="M-172.379,118.932C-194.908,123.163 -223.139,128.465 -245.424,132.649"/>
<polygon fill="blue" stroke="blue" points="-245.044,136.139 -255.518,134.545 -246.336,129.259 -245.044,136.139"/>
<text text-anchor="middle" x="-273.902" y="123.191" font-family="Bitstream Vera Sans" font-size="8.00">odpowiada na rządanie klienta</text>
</g>
<!-- DNSPooler -->
<g id="node9" class="node"><title>DNSPooler</title>
<polygon fill="none" stroke="#08cd56" stroke-width="2" points="144.683,30.3004 144.683,-5.69961 206.683,-5.69961 206.683,30.3004 144.683,30.3004"/>
<text text-anchor="middle" x="175.683" y="14.2004" font-family="Bitstream Vera Sans" font-size="8.00">DNSPooler</text>
</g>
<!-- DNSPooler&#45;&gt;Database -->
<g id="edge13" class="edge"><title>DNSPooler&#45;&gt;Database</title>
<path fill="none" stroke="red" d="M144.655,8.84415C114.524,5.48778 68.6965,0.382936 36.2097,-3.23584"/>
<polygon fill="red" stroke="red" points="35.7186,0.231195 26.1676,-4.35445 36.4936,-6.72578 35.7186,0.231195"/>
<text text-anchor="middle" x="90.4325" y="9.20415" font-family="Bitstream Vera Sans" font-size="8.00">zapisuje do Bazy Danych</text>
</g>
<!-- RootDNSServer -->
<g id="node10" class="node"><title>RootDNSServer</title>
<path fill="none" stroke="#ff8d00" d="M264.517,192.419C264.517,192.419 322.517,192.419 322.517,192.419 328.517,192.419 334.517,186.419 334.517,180.419 334.517,180.419 334.517,168.419 334.517,168.419 334.517,162.419 328.517,156.419 322.517,156.419 322.517,156.419 264.517,156.419 264.517,156.419 258.517,156.419 252.517,162.419 252.517,168.419 252.517,168.419 252.517,180.419 252.517,180.419 252.517,186.419 258.517,192.419 264.517,192.419"/>
<text text-anchor="middle" x="293.517" y="176.319" font-family="Bitstream Vera Sans" font-size="8.00">RootDNSServer</text>
</g>
<!-- DNSPooler&#45;&gt;RootDNSServer -->
<g id="edge18" class="edge"><title>DNSPooler&#45;&gt;RootDNSServer</title>
<path fill="none" stroke="blue" stroke-dasharray="5,2" d="M194.65,30.398C218.599,58.866 258.83,114.06 279.945,147.279"/>
<polygon fill="blue" stroke="blue" points="283.072,145.681 285.364,156.025 277.121,149.368 283.072,145.681"/>
<text text-anchor="middle" x="295.297" y="86.2383" font-family="Bitstream Vera Sans" font-size="8.00">rozpoczyna odpytywanie od</text>
</g>
<!-- TopLevelDNSServer -->
<g id="node11" class="node"><title>TopLevelDNSServer</title>
<path fill="none" stroke="#ff0035" d="M157.517,190.296C157.517,190.296 232.517,190.296 232.517,190.296 238.517,190.296 244.517,184.296 244.517,178.296 244.517,178.296 244.517,166.296 244.517,166.296 244.517,160.296 238.517,154.296 232.517,154.296 232.517,154.296 157.517,154.296 157.517,154.296 151.517,154.296 145.517,160.296 145.517,166.296 145.517,166.296 145.517,178.296 145.517,178.296 145.517,184.296 151.517,190.296 157.517,190.296"/>
<text text-anchor="middle" x="195.017" y="174.196" font-family="Bitstream Vera Sans" font-size="8.00">TopLevelDNSServer</text>
</g>
<!-- DNSPooler&#45;&gt;TopLevelDNSServer -->
<g id="edge20" class="edge"><title>DNSPooler&#45;&gt;TopLevelDNSServer</title>
<path fill="none" stroke="blue" stroke-dasharray="5,2" d="M182.431,30.4243C188.492,58.0952 195.144,111.103 196.885,143.909"/>
<polygon fill="blue" stroke="blue" points="200.393,144.068 197.278,154.195 193.398,144.336 200.393,144.068"/>
<text text-anchor="middle" x="131.658" y="84.5668" font-family="Bitstream Vera Sans" font-size="8.00">rozpoczyna odpytywanie od</text>
</g>
<!-- SecondLevelDNSServer -->
<g id="node12" class="node"><title>SecondLevelDNSServer</title>
<path fill="none" stroke="#ff00cf" d="M270.417,74.316C270.417,74.316 362.417,74.316 362.417,74.316 368.417,74.316 374.417,68.316 374.417,62.316 374.417,62.316 374.417,50.316 374.417,50.316 374.417,44.316 368.417,38.316 362.417,38.316 362.417,38.316 270.417,38.316 270.417,38.316 264.417,38.316 258.417,44.316 258.417,50.316 258.417,50.316 258.417,62.316 258.417,62.316 258.417,68.316 264.417,74.316 270.417,74.316"/>
<text text-anchor="middle" x="316.417" y="58.216" font-family="Bitstream Vera Sans" font-size="8.00">SecondLevelDNSServer</text>
</g>
<!-- DNSPooler&#45;&gt;SecondLevelDNSServer -->
<g id="edge22" class="edge"><title>DNSPooler&#45;&gt;SecondLevelDNSServer</title>
<path fill="none" stroke="blue" stroke-dasharray="5,2" d="M206.861,16.169C225.293,20.7382 248.983,27.8528 269.619,34.9133"/>
<polygon fill="blue" stroke="blue" points="270.879,31.6459 279.161,38.2534 268.566,38.2528 270.879,31.6459"/>
<text text-anchor="middle" x="296.24" y="22.9411" font-family="Bitstream Vera Sans" font-size="8.00">rozpoczyna odpytywanie od</text>
</g>
<!-- NthLevelDNSServer -->
<g id="node13" class="node"><title>NthLevelDNSServer</title>
<path fill="none" stroke="#7900ff" d="M285.139,-60.0685C285.139,-60.0685 360.139,-60.0685 360.139,-60.0685 366.139,-60.0685 372.139,-66.0685 372.139,-72.0685 372.139,-72.0685 372.139,-84.0685 372.139,-84.0685 372.139,-90.0685 366.139,-96.0685 360.139,-96.0685 360.139,-96.0685 285.139,-96.0685 285.139,-96.0685 279.139,-96.0685 273.139,-90.0685 273.139,-84.0685 273.139,-84.0685 273.139,-72.0685 273.139,-72.0685 273.139,-66.0685 279.139,-60.0685 285.139,-60.0685"/>
<text text-anchor="middle" x="322.639" y="-76.1685" font-family="Bitstream Vera Sans" font-size="8.00">NthLevelDNSServer</text>
</g>
<!-- DNSPooler&#45;&gt;NthLevelDNSServer -->
<g id="edge24" class="edge"><title>DNSPooler&#45;&gt;NthLevelDNSServer</title>
<path fill="none" stroke="blue" stroke-dasharray="5,2" d="M195.685,-5.91154C215.476,-20.0912 246.485,-39.6642 272.916,-54.9171"/>
<polygon fill="blue" stroke="blue" points="271.259,-58.0014 281.681,-59.9101 274.724,-51.9191 271.259,-58.0014"/>
<text text-anchor="middle" x="176.3" y="-33.0143" font-family="Bitstream Vera Sans" font-size="8.00">rozpoczyna odpytywanie od</text>
</g>
<!-- DomainLevelDNSServer -->
<g id="node14" class="node"><title>DomainLevelDNSServer</title>
<path fill="none" stroke="#004eff" d="M188.128,-144.245C188.128,-144.245 281.128,-144.245 281.128,-144.245 287.128,-144.245 293.128,-150.245 293.128,-156.245 293.128,-156.245 293.128,-168.245 293.128,-168.245 293.128,-174.245 287.128,-180.245 281.128,-180.245 281.128,-180.245 188.128,-180.245 188.128,-180.245 182.128,-180.245 176.128,-174.245 176.128,-168.245 176.128,-168.245 176.128,-156.245 176.128,-156.245 176.128,-150.245 182.128,-144.245 188.128,-144.245"/>
<text text-anchor="middle" x="234.628" y="-160.345" font-family="Bitstream Vera Sans" font-size="8.00">DomainLevelDNSServer</text>
</g>
<!-- DNSPooler&#45;&gt;DomainLevelDNSServer -->
<g id="edge26" class="edge"><title>DNSPooler&#45;&gt;DomainLevelDNSServer</title>
<path fill="none" stroke="blue" stroke-dasharray="5,2" d="M177.376,-5.7728C184.498,-36.3855 205.133,-98.5481 219.821,-134.637"/>
<polygon fill="blue" stroke="blue" points="216.688,-136.215 223.79,-144.077 223.141,-133.502 216.688,-136.215"/>
<text text-anchor="middle" x="140.599" y="-72.8051" font-family="Bitstream Vera Sans" font-size="8.00">rozpoczyna odpytywanie od</text>
</g>
<!-- RootDNSServer&#45;&gt;DNSPooler -->
<g id="edge19" class="edge"><title>RootDNSServer&#45;&gt;DNSPooler</title>
<path fill="none" stroke="blue" stroke-dasharray="5,2" d="M274.55,156.322C250.601,127.854 210.37,72.66 189.256,39.4413"/>
<polygon fill="blue" stroke="blue" points="186.129,41.0391 183.837,30.6951 192.079,37.3523 186.129,41.0391"/>
<text text-anchor="middle" x="208.903" y="95.2815" font-family="Bitstream Vera Sans" font-size="8.00">odpowiada</text>
</g>
<!-- RootDNSServer&#45;&gt;TopLevelDNSServer -->
<g id="edge14" class="edge"><title>RootDNSServer&#45;&gt;TopLevelDNSServer</title>
<path fill="none" stroke="#00ffe8" stroke-dasharray="1,5" d="M252.315,173.531C252.157,173.528 251.999,173.524 251.841,173.521"/>
<polygon fill="#00ffe8" stroke="#00ffe8" points="254.586,177.081 244.664,173.366 254.737,170.083 254.586,177.081"/>
</g>
<!-- TopLevelDNSServer&#45;&gt;DNSPooler -->
<g id="edge21" class="edge"><title>TopLevelDNSServer&#45;&gt;DNSPooler</title>
<path fill="none" stroke="blue" stroke-dasharray="5,2" d="M188.27,154.172C182.208,126.501 175.556,73.4937 173.816,40.6873"/>
<polygon fill="blue" stroke="blue" points="170.307,40.5285 173.422,30.4018 177.302,40.2606 170.307,40.5285"/>
<text text-anchor="middle" x="158.043" y="94.8298" font-family="Bitstream Vera Sans" font-size="8.00">odpowiada</text>
</g>
<!-- TopLevelDNSServer&#45;&gt;SecondLevelDNSServer -->
<g id="edge15" class="edge"><title>TopLevelDNSServer&#45;&gt;SecondLevelDNSServer</title>
<path fill="none" stroke="#00ffe8" stroke-dasharray="1,5" d="M213.986,154.174C234.357,134.713 266.881,103.641 289.806,81.7392"/>
<polygon fill="#00ffe8" stroke="#00ffe8" points="287.532,79.0706 297.181,74.6934 292.368,84.132 287.532,79.0706"/>
</g>
<!-- SecondLevelDNSServer&#45;&gt;DNSPooler -->
<g id="edge23" class="edge"><title>SecondLevelDNSServer&#45;&gt;DNSPooler</title>
<path fill="none" stroke="blue" stroke-dasharray="5,2" d="M258.414,45.1153C244.29,40.9603 229.481,36.2006 216.357,31.5777"/>
<polygon fill="blue" stroke="blue" points="214.903,34.7736 206.689,28.0814 217.283,28.1908 214.903,34.7736"/>
<text text-anchor="middle" x="214.385" y="44.7465" font-family="Bitstream Vera Sans" font-size="8.00">odpowiada</text>
</g>
<!-- SecondLevelDNSServer&#45;&gt;NthLevelDNSServer -->
<g id="edge16" class="edge"><title>SecondLevelDNSServer&#45;&gt;NthLevelDNSServer</title>
<path fill="none" stroke="#00ffe8" stroke-dasharray="1,5" d="M317.256,38.1923C318.3,15.65 320.094,-23.0938 321.322,-49.6123"/>
<polygon fill="#00ffe8" stroke="#00ffe8" points="317.835,-49.9754 321.794,-59.8028 324.827,-49.6516 317.835,-49.9754"/>
</g>
<!-- NthLevelDNSServer&#45;&gt;DNSPooler -->
<g id="edge25" class="edge"><title>NthLevelDNSServer&#45;&gt;DNSPooler</title>
<path fill="none" stroke="blue" stroke-dasharray="5,2" d="M302.637,-59.8566C280.327,-43.8725 243.763,-21.035 215.571,-5.25787"/>
<polygon fill="blue" stroke="blue" points="217.19,-2.15365 206.741,-0.401152 213.817,-8.28716 217.19,-2.15365"/>
<text text-anchor="middle" x="282.104" y="-35.1572" font-family="Bitstream Vera Sans" font-size="8.00">odpowiada</text>
</g>
<!-- NthLevelDNSServer&#45;&gt;DomainLevelDNSServer -->
<g id="edge17" class="edge"><title>NthLevelDNSServer&#45;&gt;DomainLevelDNSServer</title>
<path fill="none" stroke="#00ffe8" stroke-dasharray="1,5" d="M303.542,-96.3336C291.087,-108.247 274.661,-123.957 260.97,-137.051"/>
<polygon fill="#00ffe8" stroke="#00ffe8" points="258.496,-134.574 253.688,-144.016 263.334,-139.633 258.496,-134.574"/>
</g>
<!-- DomainLevelDNSServer&#45;&gt;DNSPooler -->
<g id="edge27" class="edge"><title>DomainLevelDNSServer&#45;&gt;DNSPooler</title>
<path fill="none" stroke="#ff1900" stroke-dasharray="5,2" d="M232.936,-144.172C225.814,-113.559 205.178,-51.3967 190.49,-15.3074"/>
<polygon fill="#ff1900" stroke="#ff1900" points="193.623,-13.7294 186.521,-5.86771 187.171,-16.4426 193.623,-13.7294"/>
<text text-anchor="middle" x="188.713" y="-82.3397" font-family="Bitstream Vera Sans" font-size="8.00">odpowiada</text>
</g>
</g>
</svg>
